<svg viewBox="0 0 364 124" fill="none" xmlns="http://www.w3.org/2000/svg">
	<path d="M2 18C2 9.16344 9.16344 2 18 2H346C354.837 2 362 9.16344 362 18V106C362 114.837 354.837 122 346 122H18C9.16344 122 2 114.837 2 106V18Z" stroke="white" stroke-opacity="0.333333" stroke-width="4"/>
	<path fill-rule="evenodd" clip-rule="evenodd" d="M64 27C44.11 27 28 43.0587 28 62.8853C28 78.7645 38.305 92.1766 52.615 96.9314C54.415 97.2454 55.09 96.1689 55.09 95.2269C55.09 94.3746 55.045 91.5487 55.045 88.5433C46 90.203 43.66 86.3453 42.94 84.3267C42.535 83.295 40.78 80.1102 39.25 79.2579C37.99 78.5851 36.19 76.9254 39.205 76.8805C42.04 76.8357 44.065 79.4822 44.74 80.5588C47.98 85.9864 53.155 84.4613 55.225 83.5193C55.54 81.1868 56.485 79.6168 57.52 78.7197C49.51 77.8225 41.14 74.7274 41.14 61.0013C41.14 57.0988 42.535 53.8691 44.83 51.3571C44.47 50.46 43.21 46.7818 45.19 41.8475C45.19 41.8475 48.205 40.9055 55.09 45.5258C57.97 44.7184 61.03 44.3146 64.09 44.3146C67.15 44.3146 70.21 44.7184 73.09 45.5258C79.975 40.8607 82.99 41.8475 82.99 41.8475C84.97 46.7818 83.71 50.46 83.35 51.3571C85.645 53.8691 87.04 57.0539 87.04 61.0013C87.04 74.7723 78.625 77.8225 70.615 78.7197C71.92 79.8411 73.045 81.9942 73.045 85.3584C73.045 90.1581 73 94.0158 73 95.2269C73 96.1689 73.675 97.2903 75.475 96.9314C82.6217 94.5265 88.8318 89.9481 93.2313 83.8406C97.6308 77.7331 99.9981 70.4042 100 62.8853C100 43.0587 83.89 27 64 27Z" fill="#EEEEEE"/>
	<path fill-rule="evenodd" clip-rule="evenodd" d="M183.237 89.0332H183.183C183.207 89.0332 183.223 89.0606 183.248 89.0634H183.264L183.237 89.036V89.0332ZM183.248 89.0634C182.996 89.0661 182.361 89.2002 181.692 89.2002C179.577 89.2002 178.845 88.2146 178.845 86.9279V78.3559H183.156C183.4 78.3559 183.589 78.1369 183.589 77.8357V73.1815C183.589 72.9351 183.372 72.7161 183.156 72.7161H178.845V66.9394C178.845 66.7204 178.709 66.5835 178.465 66.5835H172.609C172.365 66.5835 172.23 66.7204 172.23 66.9394V72.8804C172.23 72.8804 169.275 73.6196 169.085 73.6469C168.868 73.7017 168.732 73.8933 168.732 74.1124V77.8357C168.732 78.1369 168.949 78.3559 169.193 78.3559H172.203V87.3358C172.203 94.016 176.812 94.7004 179.956 94.7004C181.393 94.7004 183.128 94.235 183.4 94.0981C183.562 94.0434 183.644 93.8517 183.644 93.6601V89.5534C183.647 89.4369 183.609 89.323 183.537 89.2325C183.464 89.142 183.361 89.081 183.248 89.0606V89.0634ZM247.49 83.0375C247.49 78.0821 245.511 77.4251 243.424 77.6441C241.797 77.7536 240.496 78.5749 240.496 78.5749V88.2119C240.496 88.2119 241.824 89.1428 243.803 89.1975C246.596 89.2796 247.49 88.2667 247.49 83.0375ZM254.078 82.5995C254.078 91.99 251.069 94.6731 245.809 94.6731C241.363 94.6731 238.977 92.4007 238.977 92.4007C238.977 92.4007 238.869 93.6601 238.733 93.8244C238.652 93.9886 238.516 94.0434 238.354 94.0434H234.341C234.07 94.0434 233.826 93.8244 233.826 93.578L233.88 63.1612C233.88 62.9148 234.097 62.6958 234.341 62.6958H240.116C240.36 62.6958 240.577 62.9148 240.577 63.1612V73.4827C240.577 73.4827 242.8 72.0316 246.053 72.0316L246.026 71.9769C249.28 71.9769 254.078 73.2089 254.078 82.5995V82.5995ZM230.437 72.7161H224.744C224.446 72.7161 224.283 72.9351 224.283 73.2363V88.1298C224.283 88.1298 222.792 89.1975 220.759 89.1975C218.725 89.1975 218.129 88.2667 218.129 86.2133V73.2089C218.129 72.9625 217.912 72.7435 217.668 72.7435H211.866C211.622 72.7435 211.405 72.9625 211.405 73.2089V87.1989C211.405 93.222 214.74 94.7278 219.322 94.7278C223.09 94.7278 226.154 92.6197 226.154 92.6197C226.154 92.6197 226.289 93.6875 226.371 93.8517C226.425 93.9886 226.615 94.0981 226.804 94.0981H230.437C230.736 94.0981 230.898 93.8791 230.898 93.6327L230.952 73.1815C230.952 72.9351 230.736 72.7161 230.437 72.7161V72.7161ZM166.184 72.6887H160.409C160.165 72.6887 159.948 72.9351 159.948 73.2363V93.3316C159.948 93.8791 160.301 94.0708 160.762 94.0708H165.967C166.509 94.0708 166.645 93.8244 166.645 93.3316V73.1541C166.645 72.9077 166.428 72.6887 166.184 72.6887V72.6887ZM163.337 63.435C161.25 63.435 159.596 65.1051 159.596 67.2132C159.596 69.3212 161.25 70.9913 163.337 70.9913C165.371 70.9913 167.024 69.3212 167.024 67.2132C167.024 65.1051 165.371 63.435 163.337 63.435ZM208.044 62.7506H202.323C202.079 62.7506 201.862 62.9696 201.862 63.216V74.4135H192.888V63.216C192.888 62.9696 192.672 62.7506 192.428 62.7506H186.653C186.409 62.7506 186.192 62.9696 186.192 63.216V93.6327C186.192 93.8791 186.436 94.0981 186.653 94.0981H192.428C192.672 94.0981 192.888 93.8791 192.888 93.6327V80.6283H201.862L201.808 93.6327C201.808 93.8791 202.025 94.0981 202.269 94.0981H208.044C208.288 94.0981 208.504 93.8791 208.504 93.6327V63.216C208.504 62.9696 208.288 62.7506 208.044 62.7506V62.7506ZM156.885 76.2204V91.9353C156.885 92.0448 156.858 92.2364 156.722 92.2912C156.722 92.2912 153.333 94.7278 147.748 94.7278C140.998 94.7278 133 92.5924 133 78.5202C133 64.448 139.995 61.546 146.827 61.5733C152.737 61.5733 155.123 62.9148 155.502 63.1612C155.611 63.2981 155.665 63.4076 155.665 63.5445L154.526 68.4178C154.526 68.6642 154.282 68.9653 153.984 68.8832C153.008 68.582 151.544 67.9797 148.101 67.9797C144.116 67.9797 139.832 69.1296 139.832 78.1916C139.832 87.2537 143.899 88.3214 146.827 88.3214C149.321 88.3214 150.216 88.0203 150.216 88.0203V81.7234H146.23C145.932 81.7234 145.715 81.5044 145.715 81.258V76.2204C145.715 75.974 145.932 75.755 146.23 75.755H156.37C156.668 75.755 156.885 75.974 156.885 76.2204Z" fill="#EEEEEE"/>
	<path d="M146.344 44C146.04 43.184 145.752 42.4 145.48 41.648C145.208 40.896 144.944 40.16 144.688 39.44H136.6C136.328 40.16 136.056 40.896 135.784 41.648C135.512 42.4 135.232 43.184 134.944 44H133.24C133.88 42.272 134.48 40.664 135.04 39.176C135.6 37.672 136.144 36.256 136.672 34.928C137.216 33.584 137.752 32.296 138.28 31.064C138.808 29.832 139.368 28.6 139.96 27.368H141.4C141.992 28.6 142.552 29.832 143.08 31.064C143.608 32.296 144.136 33.584 144.664 34.928C145.208 36.256 145.76 37.672 146.32 39.176C146.88 40.664 147.488 42.272 148.144 44H146.344ZM140.632 29.24C140.024 30.616 139.432 32.016 138.856 33.44C138.296 34.864 137.712 36.4 137.104 38.048H144.184C143.576 36.4 142.984 34.864 142.408 33.44C141.832 32.016 141.24 30.616 140.632 29.24Z" fill="#EEEEEE"/>
	<path d="M153.949 42.32C154.285 41.632 154.629 40.848 154.981 39.968C155.333 39.072 155.669 38.152 155.989 37.208C156.325 36.248 156.629 35.288 156.901 34.328C157.189 33.352 157.429 32.44 157.621 31.592H159.181C158.893 32.728 158.573 33.848 158.221 34.952C157.869 36.056 157.493 37.136 157.093 38.192C156.709 39.248 156.301 40.264 155.869 41.24C155.453 42.216 155.045 43.136 154.645 44H153.157C152.741 43.136 152.325 42.216 151.909 41.24C151.493 40.264 151.085 39.248 150.685 38.192C150.301 37.136 149.933 36.056 149.581 34.952C149.229 33.848 148.909 32.728 148.621 31.592H150.277C150.469 32.44 150.701 33.352 150.973 34.328C151.261 35.288 151.565 36.248 151.885 37.208C152.221 38.152 152.565 39.072 152.917 39.968C153.269 40.848 153.613 41.632 153.949 42.32Z" fill="#EEEEEE"/>
	<path d="M165.648 42.872C166.256 42.872 166.784 42.856 167.232 42.824C167.696 42.776 168.088 42.72 168.408 42.656V38.288C168.232 38.208 167.952 38.128 167.568 38.048C167.184 37.952 166.656 37.904 165.984 37.904C165.6 37.904 165.2 37.936 164.784 38C164.368 38.048 163.984 38.168 163.632 38.36C163.28 38.536 162.992 38.784 162.768 39.104C162.544 39.424 162.432 39.848 162.432 40.376C162.432 40.84 162.504 41.232 162.648 41.552C162.808 41.872 163.024 42.128 163.296 42.32C163.584 42.512 163.92 42.656 164.304 42.752C164.704 42.832 165.152 42.872 165.648 42.872ZM165.504 31.304C166.32 31.304 167.008 31.424 167.568 31.664C168.144 31.888 168.608 32.208 168.96 32.624C169.312 33.024 169.568 33.504 169.728 34.064C169.888 34.624 169.968 35.232 169.968 35.888V43.712C169.808 43.76 169.576 43.816 169.272 43.88C168.968 43.928 168.616 43.984 168.216 44.048C167.816 44.112 167.368 44.16 166.872 44.192C166.392 44.24 165.896 44.264 165.384 44.264C164.728 44.264 164.12 44.192 163.56 44.048C163.016 43.904 162.536 43.68 162.12 43.376C161.72 43.056 161.4 42.656 161.16 42.176C160.936 41.68 160.824 41.08 160.824 40.376C160.824 39.704 160.952 39.128 161.208 38.648C161.464 38.168 161.824 37.776 162.288 37.472C162.752 37.152 163.304 36.92 163.944 36.776C164.584 36.632 165.28 36.56 166.032 36.56C166.256 36.56 166.488 36.576 166.728 36.608C166.984 36.624 167.224 36.656 167.448 36.704C167.688 36.736 167.888 36.776 168.048 36.824C168.224 36.856 168.344 36.888 168.408 36.92V36.152C168.408 35.72 168.376 35.304 168.312 34.904C168.248 34.488 168.104 34.12 167.88 33.8C167.672 33.464 167.368 33.2 166.968 33.008C166.584 32.8 166.072 32.696 165.432 32.696C164.52 32.696 163.84 32.76 163.392 32.888C162.944 33.016 162.616 33.12 162.408 33.2L162.192 31.832C162.464 31.704 162.88 31.584 163.44 31.472C164.016 31.36 164.704 31.304 165.504 31.304Z" fill="#EEEEEE"/>
	<path d="M175.507 44H173.947V31.592H175.507V44ZM175.867 27.848C175.867 28.216 175.755 28.512 175.531 28.736C175.307 28.944 175.035 29.048 174.715 29.048C174.395 29.048 174.123 28.944 173.899 28.736C173.675 28.512 173.563 28.216 173.563 27.848C173.563 27.48 173.675 27.192 173.899 26.984C174.123 26.76 174.395 26.648 174.715 26.648C175.035 26.648 175.307 26.76 175.531 26.984C175.755 27.192 175.867 27.48 175.867 27.848Z" fill="#EEEEEE"/>
	<path d="M182.786 44.216C182.258 44.2 181.794 44.128 181.394 44C181.01 43.888 180.682 43.712 180.41 43.472C180.154 43.216 179.954 42.896 179.81 42.512C179.682 42.112 179.618 41.616 179.618 41.024V25.664L181.178 25.376V40.976C181.178 41.36 181.21 41.672 181.274 41.912C181.354 42.136 181.466 42.32 181.61 42.464C181.754 42.592 181.938 42.688 182.162 42.752C182.402 42.816 182.682 42.872 183.002 42.92L182.786 44.216Z" fill="#EEEEEE"/>
	<path d="M189.671 42.872C190.279 42.872 190.807 42.856 191.255 42.824C191.719 42.776 192.111 42.72 192.431 42.656V38.288C192.255 38.208 191.975 38.128 191.591 38.048C191.207 37.952 190.679 37.904 190.007 37.904C189.623 37.904 189.223 37.936 188.807 38C188.391 38.048 188.007 38.168 187.655 38.36C187.303 38.536 187.015 38.784 186.791 39.104C186.567 39.424 186.455 39.848 186.455 40.376C186.455 40.84 186.527 41.232 186.671 41.552C186.831 41.872 187.047 42.128 187.319 42.32C187.607 42.512 187.943 42.656 188.327 42.752C188.727 42.832 189.175 42.872 189.671 42.872ZM189.527 31.304C190.343 31.304 191.031 31.424 191.591 31.664C192.167 31.888 192.631 32.208 192.983 32.624C193.335 33.024 193.591 33.504 193.751 34.064C193.911 34.624 193.991 35.232 193.991 35.888V43.712C193.831 43.76 193.599 43.816 193.295 43.88C192.991 43.928 192.639 43.984 192.239 44.048C191.839 44.112 191.391 44.16 190.895 44.192C190.415 44.24 189.919 44.264 189.407 44.264C188.751 44.264 188.143 44.192 187.583 44.048C187.039 43.904 186.559 43.68 186.143 43.376C185.743 43.056 185.423 42.656 185.183 42.176C184.959 41.68 184.847 41.08 184.847 40.376C184.847 39.704 184.975 39.128 185.231 38.648C185.487 38.168 185.847 37.776 186.311 37.472C186.775 37.152 187.327 36.92 187.967 36.776C188.607 36.632 189.303 36.56 190.055 36.56C190.279 36.56 190.511 36.576 190.751 36.608C191.007 36.624 191.247 36.656 191.471 36.704C191.711 36.736 191.911 36.776 192.071 36.824C192.247 36.856 192.367 36.888 192.431 36.92V36.152C192.431 35.72 192.399 35.304 192.335 34.904C192.271 34.488 192.127 34.12 191.903 33.8C191.695 33.464 191.391 33.2 190.991 33.008C190.607 32.8 190.095 32.696 189.455 32.696C188.543 32.696 187.863 32.76 187.415 32.888C186.967 33.016 186.639 33.12 186.431 33.2L186.215 31.832C186.487 31.704 186.903 31.584 187.463 31.472C188.039 31.36 188.727 31.304 189.527 31.304Z" fill="#EEEEEE"/>
	<path d="M199.53 32.336C199.802 32.128 200.234 31.912 200.826 31.688C201.434 31.448 202.146 31.328 202.962 31.328C203.858 31.328 204.65 31.488 205.338 31.808C206.042 32.128 206.634 32.576 207.114 33.152C207.594 33.728 207.954 34.416 208.194 35.216C208.45 36 208.578 36.864 208.578 37.808C208.578 38.816 208.426 39.72 208.122 40.52C207.834 41.32 207.418 42 206.874 42.56C206.346 43.12 205.706 43.552 204.954 43.856C204.218 44.144 203.394 44.288 202.482 44.288C201.378 44.288 200.466 44.216 199.746 44.072C199.026 43.928 198.434 43.776 197.97 43.616V25.664L199.53 25.376V32.336ZM199.53 42.536C199.77 42.616 200.122 42.696 200.586 42.776C201.066 42.84 201.69 42.872 202.458 42.872C203.802 42.872 204.882 42.44 205.698 41.576C206.514 40.696 206.922 39.44 206.922 37.808C206.922 37.12 206.85 36.472 206.706 35.864C206.562 35.24 206.33 34.704 206.01 34.256C205.69 33.792 205.266 33.424 204.738 33.152C204.226 32.88 203.586 32.744 202.818 32.744C202.45 32.744 202.098 32.784 201.762 32.864C201.426 32.928 201.114 33.016 200.826 33.128C200.538 33.24 200.282 33.36 200.058 33.488C199.85 33.616 199.674 33.736 199.53 33.848V42.536Z" fill="#EEEEEE"/>
	<path d="M215.106 44.216C214.578 44.2 214.114 44.128 213.714 44C213.33 43.888 213.002 43.712 212.73 43.472C212.474 43.216 212.274 42.896 212.13 42.512C212.002 42.112 211.938 41.616 211.938 41.024V25.664L213.498 25.376V40.976C213.498 41.36 213.53 41.672 213.594 41.912C213.674 42.136 213.786 42.32 213.93 42.464C214.074 42.592 214.258 42.688 214.482 42.752C214.722 42.816 215.002 42.872 215.322 42.92L215.106 44.216Z" fill="#EEEEEE"/>
	<path d="M217.336 37.784C217.336 36.696 217.488 35.752 217.792 34.952C218.112 34.136 218.52 33.456 219.016 32.912C219.528 32.368 220.104 31.968 220.744 31.712C221.4 31.44 222.072 31.304 222.76 31.304C224.28 31.304 225.488 31.8 226.384 32.792C227.296 33.784 227.752 35.312 227.752 37.376C227.752 37.504 227.744 37.632 227.728 37.76C227.728 37.888 227.72 38.008 227.704 38.12H218.992C219.04 39.64 219.416 40.808 220.12 41.624C220.824 42.44 221.944 42.848 223.48 42.848C224.328 42.848 225 42.768 225.496 42.608C225.992 42.448 226.352 42.312 226.576 42.2L226.864 43.544C226.64 43.672 226.216 43.824 225.592 44C224.984 44.176 224.264 44.264 223.432 44.264C222.344 44.264 221.416 44.104 220.648 43.784C219.88 43.464 219.248 43.016 218.752 42.44C218.256 41.864 217.896 41.184 217.672 40.4C217.448 39.6 217.336 38.728 217.336 37.784ZM226.144 36.8C226.112 35.504 225.808 34.496 225.232 33.776C224.656 33.056 223.84 32.696 222.784 32.696C222.224 32.696 221.72 32.808 221.272 33.032C220.84 33.256 220.456 33.56 220.12 33.944C219.8 34.312 219.544 34.744 219.352 35.24C219.176 35.736 219.072 36.256 219.04 36.8H226.144Z" fill="#EEEEEE"/>
	<path d="M247.273 37.808C247.273 38.784 247.129 39.672 246.841 40.472C246.569 41.272 246.177 41.952 245.665 42.512C245.169 43.072 244.577 43.512 243.889 43.832C243.201 44.136 242.441 44.288 241.609 44.288C240.777 44.288 240.017 44.136 239.329 43.832C238.641 43.512 238.041 43.072 237.529 42.512C237.033 41.952 236.641 41.272 236.353 40.472C236.081 39.672 235.945 38.784 235.945 37.808C235.945 36.832 236.081 35.944 236.353 35.144C236.641 34.344 237.033 33.664 237.529 33.104C238.041 32.528 238.641 32.088 239.329 31.784C240.017 31.464 240.777 31.304 241.609 31.304C242.441 31.304 243.201 31.464 243.889 31.784C244.577 32.088 245.169 32.528 245.665 33.104C246.177 33.664 246.569 34.344 246.841 35.144C247.129 35.944 247.273 36.832 247.273 37.808ZM245.617 37.808C245.617 36.256 245.257 35.024 244.537 34.112C243.817 33.184 242.841 32.72 241.609 32.72C240.377 32.72 239.401 33.184 238.681 34.112C237.961 35.024 237.601 36.256 237.601 37.808C237.601 39.36 237.961 40.592 238.681 41.504C239.401 42.416 240.377 42.872 241.609 42.872C242.841 42.872 243.817 42.416 244.537 41.504C245.257 40.592 245.617 39.36 245.617 37.808Z" fill="#EEEEEE"/>
	<path d="M250.658 32.024C251.122 31.896 251.746 31.752 252.53 31.592C253.314 31.432 254.274 31.352 255.41 31.352C256.354 31.352 257.138 31.488 257.762 31.76C258.402 32.032 258.906 32.424 259.274 32.936C259.658 33.432 259.93 34.032 260.09 34.736C260.25 35.44 260.33 36.216 260.33 37.064V44H258.77V37.568C258.77 36.688 258.706 35.944 258.578 35.336C258.466 34.728 258.266 34.232 257.978 33.848C257.706 33.464 257.338 33.192 256.874 33.032C256.426 32.856 255.858 32.768 255.17 32.768C254.434 32.768 253.794 32.808 253.25 32.888C252.722 32.968 252.378 33.04 252.218 33.104V44H250.658V32.024Z" fill="#EEEEEE"/>
</svg>
