<svg xmlns="http://www.w3.org/2000/svg" viewBox="70 70 260 260">
	<rect width="400" height="400" fill="none"/>
	<path fill="#1da1f2" d="M153.6 301.6c94.4 0 146-78.2 146-146 0-2.2 0-4.4-.2-6.6a104.4 104.4 0 0025.6-26.5 102.4 102.4 0 01-29.5 8 51.5 51.5 0 0022.6-28.3 102.8 102.8 0 01-32.6 12.4 51.3 51.3 0 00-87.4 46.8 145.6 145.6 0 01-105.7-53.6 51.3 51.3 0 0015.9 68.5 51 51 0 01-23.3-6.4v.6a51.3 51.3 0 0041.1 50.3 51.2 51.2 0 01-23.1.9 51.4 51.4 0 0048 35.6 103 103 0 01-63.8 22 104.4 104.4 0 01-12.2-.8 145.2 145.2 0 0078.6 23"/>
</svg>